<?xml version="1.0" encoding="UTF-8" standalone="no"?>
<!DOCTYPE svg PUBLIC "-//W3C//DTD SVG 1.1//EN" "http://www.w3.org/Graphics/SVG/1.1/DTD/svg11.dtd">
<!-- Created with Vectornator (http://vectornator.io/) -->
<svg height="100%" stroke-miterlimit="10" style="fill-rule:nonzero;clip-rule:evenodd;stroke-linecap:round;stroke-linejoin:round;" version="1.1" viewBox="0 0 103.492 107" width="100%" xml:space="preserve" xmlns="http://www.w3.org/2000/svg" xmlns:vectornator="http://vectornator.io" xmlns:xlink="http://www.w3.org/1999/xlink">
<defs/>
<g id="Layer" vectornator:layerName="Layer">
<g opacity="1" vectornator:layerName="Group 3">
<path d="M39.2919 31.8662C36.8361 31.8662 34.3804 31.223 32.217 29.9367L26.0776 26.37L27.8317 23.3295L33.9711 26.8962C37.3039 28.8257 41.3968 28.8257 44.6711 26.8962C47.9454 24.9667 49.9329 21.4585 49.9329 17.7164C49.9329 13.9159 47.8869 10.4077 44.6126 8.5367L38.4148 4.97L40.1689 1.9295L46.3667 5.4962C50.6939 8.0104 53.4419 12.688 53.4419 17.7164C53.4419 22.6864 50.7519 27.364 46.4837 29.8782C44.2618 31.223 41.7476 31.8662 39.2919 31.8662Z" fill="#e1e6ff" fill-rule="nonzero" opacity="1" stroke="none" vectornator:layerName="path"/>
<path d="M15.4361 62.2116L13.682 59.1716L19.8798 55.6046C23.1541 53.7336 25.1421 50.1673 25.1421 46.4252L25.1421 46.2498C25.1421 42.5077 23.0957 39.058 19.8798 37.1285L19.8214 37.07C15.4946 34.5558 12.805 29.8782 12.805 24.9082C12.805 19.8798 15.4946 15.2022 19.8214 12.688C24.1481 10.1738 29.5858 10.1738 33.9711 12.688L40.1689 16.2547L38.4148 19.2951L32.217 15.7285C28.9427 13.8574 24.8498 13.8574 21.6339 15.7285C18.3596 17.5995 16.3716 21.1077 16.3716 24.9082C16.3716 28.7088 18.4181 32.1585 21.6339 34.088L21.6924 34.1465C26.0192 36.6607 28.6503 41.2798 28.7088 46.2498L28.7088 46.4252C28.7088 51.4536 26.0192 56.1316 21.6924 58.7036L15.4361 62.2116Z" fill="#e1e6ff" fill-rule="nonzero" opacity="1" stroke="none" vectornator:layerName="path"/>
<path d="M26.8962 96.2416C24.4405 96.2416 22.0432 95.5986 19.8214 94.3706C15.4946 91.8566 12.805 87.2376 12.805 82.2086L12.805 82.0336C12.805 77.0636 15.4946 72.3856 19.7629 69.9296L25.9607 66.3046L27.7148 69.3456L21.517 72.9706C18.3011 74.8416 16.3132 78.3496 16.3132 82.0916L16.3132 82.2676C16.3132 86.0096 18.3011 89.5176 21.5754 91.3886C24.8498 93.3176 28.9427 93.2596 32.217 91.3886L38.4148 87.7636L40.1689 90.8036L33.9711 94.4286C31.8077 95.5986 29.352 96.2416 26.8962 96.2416Z" fill="#e1e6ff" fill-rule="nonzero" opacity="1" stroke="none" vectornator:layerName="path"/>
<path d="M40.1689 104.954L38.4148 101.914L44.6126 98.3466C47.8869 96.4756 49.8749 92.9676 49.8749 89.1666C49.8749 85.3666 47.8285 81.8576 44.5541 79.9866C41.2798 78.1156 37.2454 78.1156 33.9711 79.9866L27.7733 83.5536L26.0192 80.5136L32.217 76.9466C36.5438 74.4326 41.923 74.4326 46.2498 76.8876C50.6349 79.4026 53.3829 84.0796 53.3829 89.1086C53.3829 94.1366 50.6939 98.8146 46.3667 101.329L40.1689 104.954Z" fill="#e1e6ff" fill-rule="nonzero" opacity="1" stroke="none" vectornator:layerName="path"/>
<path d="M14.5591 74.7836C12.1033 74.7836 9.706 74.1396 7.4842 72.9116C3.1574 70.3976 0.4678 65.7206 0.4678 60.6916C0.4678 55.6046 3.1574 50.9276 7.4842 48.4716L13.682 44.905L15.4361 47.9454L9.2383 51.4536C5.964 53.3246 3.976 56.8326 3.976 60.6336C3.976 64.4336 6.0224 67.9426 9.2383 69.8716C12.5126 71.7426 16.6055 71.7426 19.8798 69.8716L25.2006 66.7726L26.9547 69.8136L21.6339 72.9116C19.4705 74.1396 17.0148 74.7836 14.5591 74.7836Z" fill="#e1e6ff" fill-rule="nonzero" opacity="1" stroke="none" vectornator:layerName="path"/>
<path d="M26.0192 40.6951L19.9383 37.1285C16.6055 35.1989 12.5126 35.1989 9.2383 37.1285L4.853 39.5257L3.1574 36.4268L7.5427 34.0295C11.9279 31.5153 17.3656 31.5153 21.7509 34.088L27.8317 37.6547L26.0192 40.6951Z" fill="#e1e6ff" fill-rule="nonzero" opacity="1" stroke="none" vectornator:layerName="path"/>
<path d="M41.046 45.3727L37.5378 45.3727L37.5378 37.8886C37.5378 33.6203 39.8181 29.7028 43.5017 27.5979L50.8689 23.3295L52.6229 26.37L45.2558 30.6383C42.6831 32.1585 41.046 34.9066 41.046 37.947L41.046 45.3727Z" fill="#e1e6ff" fill-rule="nonzero" opacity="1" stroke="none" vectornator:layerName="path"/>
<path d="M64.1999 31.8662C61.7439 31.8662 59.2299 31.223 57.0669 29.9367C52.7399 27.4224 50.0499 22.7448 50.0499 17.7749C50.0499 12.7465 52.7399 8.0689 57.1249 5.5547L63.3229 1.988L65.0769 5.0285L58.8789 8.5951C55.6049 10.4662 53.5589 13.9744 53.5589 17.7749C53.5589 21.517 55.5469 25.0252 58.8209 26.8962C62.1539 28.8257 66.2469 28.8842 69.5789 26.9547L75.7189 23.388L77.4729 26.4285L71.3329 29.9951C69.1119 31.2815 66.6559 31.8662 64.1999 31.8662Z" fill="#e1e6ff" fill-rule="nonzero" opacity="1" stroke="none" vectornator:layerName="path"/>
<path d="M87.9969 62.2116L81.7999 58.6456C77.4729 56.1316 74.7829 51.3956 74.7829 46.3667L74.7829 46.1913C74.7829 41.2214 77.4729 36.6022 81.7999 34.088L81.8579 34.0295C85.0739 32.1585 87.1199 28.6503 87.1199 24.9082C87.1199 21.1077 85.1319 17.5995 81.8579 15.7285C78.5839 13.8574 74.5489 13.7989 71.2749 15.7285L65.0769 19.2951L63.3229 16.2547L69.5209 12.688C73.9059 10.1738 79.2849 10.1738 83.6709 12.688C87.9969 15.2022 90.6869 19.8798 90.6869 24.9082C90.6869 29.9367 87.9969 34.5558 83.6709 37.07L83.6119 37.1285C80.3959 38.9995 78.3499 42.5077 78.3499 46.2498L78.3499 46.4252C78.3499 50.2257 80.3379 53.7336 83.6119 55.6046L89.8099 59.1716L87.9969 62.2116Z" fill="#e1e6ff" fill-rule="nonzero" opacity="1" stroke="none" vectornator:layerName="path"/>
<path d="M76.5959 96.2416C74.1399 96.2416 71.6839 95.5986 69.4619 94.3116L63.2649 90.6866L65.0189 87.6466L71.2169 91.2716C74.4909 93.2016 78.5839 93.2016 81.8579 91.2716C85.0739 89.4006 87.1199 85.8926 87.1199 82.1506L87.1199 81.9746C87.1199 78.2326 85.1319 74.7836 81.9169 72.8536L75.7189 69.2286L77.4729 66.1876L83.6709 69.8136C87.9389 72.3276 90.6289 76.9466 90.6289 81.9166L90.6289 82.0916C90.6289 87.0616 87.9389 91.7396 83.6119 94.2536C81.5069 95.5986 79.0519 96.2416 76.5959 96.2416Z" fill="#e1e6ff" fill-rule="nonzero" opacity="1" stroke="none" vectornator:layerName="path"/>
<path d="M63.2649 104.954L57.0669 101.387C52.7399 98.8726 50.0499 94.1956 50.0499 89.1666C50.0499 84.1386 52.7989 79.4026 57.1839 76.9466C61.5689 74.4326 66.9479 74.4906 71.2749 77.0046L77.4729 80.5716L75.7189 83.6116L69.4619 80.0456C66.1879 78.1746 62.1539 78.1746 58.9379 79.9866C55.6049 81.8576 53.5589 85.4246 53.5589 89.1666C53.5589 92.9086 55.6049 96.4756 58.8209 98.3466L65.0189 101.914L63.2649 104.954Z" fill="#e1e6ff" fill-rule="nonzero" opacity="1" stroke="none" vectornator:layerName="path"/>
<path d="M88.9329 74.7836C86.4769 74.7836 84.0209 74.1396 81.7999 72.8536L76.4789 69.7546L78.2329 66.7146L83.5539 69.8136C86.8279 71.7426 90.9209 71.7426 94.1949 69.8136C97.4699 67.9426 99.4579 64.4336 99.4579 60.6336C99.4579 56.8326 97.4109 53.3246 94.1949 51.3956L87.9969 47.8285L89.7519 44.788L95.9489 48.3547C100.276 50.8686 102.966 55.5466 102.966 60.5746C102.966 65.6616 100.276 70.3396 95.9489 72.7956C93.7859 74.1396 91.3889 74.7836 88.9329 74.7836Z" fill="#e1e6ff" fill-rule="nonzero" opacity="1" stroke="none" vectornator:layerName="path"/>
<path d="M77.4139 40.6951L75.6599 37.6547L81.7409 34.088C86.1259 31.5153 91.6229 31.5153 96.0079 34.088L100.335 36.4268L98.6389 39.5257L94.2539 37.1285C90.9209 35.1989 86.7699 35.1989 83.4949 37.1285L77.4139 40.6951Z" fill="#e1e6ff" fill-rule="nonzero" opacity="1" stroke="none" vectornator:layerName="path"/>
<path d="M65.9539 45.3727L62.4459 45.3727L62.4459 37.8886C62.4459 34.9066 60.8089 32.1 58.2359 30.5798L50.8689 26.3115L52.6229 23.2711L59.9899 27.5394C63.6739 29.6443 65.9539 33.6203 65.9539 37.8301L65.9539 45.3727Z" fill="#e1e6ff" fill-rule="nonzero" opacity="1" stroke="none" vectornator:layerName="path"/>
<path d="M49.9329 67.7086L53.4419 67.7086L53.4419 67.7086L53.4419 82.0916L53.4419 82.0916L49.9329 82.0916L49.9329 82.0916L49.9329 67.7086L49.9329 67.7086Z" fill="#e1e6ff" fill-rule="nonzero" opacity="1" stroke="none" vectornator:layerName="rect"/>
<path d="M41.3383 46.3667L37.2454 46.3667L37.2454 37.07C37.2454 34.7312 36.0175 32.5678 33.9711 31.3984L26.8377 27.247L28.8842 23.7388L36.0175 27.8902C39.2919 29.7612 41.2798 33.3279 41.2798 37.07L41.2798 46.3667L41.3383 46.3667Z" fill="#e1e6ff" fill-rule="nonzero" opacity="1" stroke="none" vectornator:layerName="path"/>
<path d="M65.8959 46.3667L62.3879 46.3667L62.3879 37.07C62.3879 33.3864 64.3759 29.9951 67.5329 28.1241L74.7249 23.9142L76.4789 26.9547L69.3459 31.1061C67.2409 32.3339 65.9539 34.6142 65.9539 37.0115L65.9539 46.3667L65.8959 46.3667Z" fill="#e1e6ff" fill-rule="nonzero" opacity="1" stroke="none" vectornator:layerName="path"/>
<path d="M28.1826 34.3219C26.8962 33.9711 25.5514 34.1465 24.382 34.8481C23.2126 35.4913 22.394 36.6022 22.0432 37.8886C21.6924 39.1749 21.8678 40.5197 22.5694 41.6891C23.2126 42.8585 24.3235 43.6771 25.6099 44.0279C26.0192 44.1448 26.4869 44.2033 26.8962 44.2033C27.7733 44.2033 28.6503 43.9694 29.4104 43.5017C30.5798 42.8585 31.3984 41.7476 31.7492 40.4612C32.1 39.1749 31.9246 37.8301 31.223 36.6607C30.5798 35.4913 29.4689 34.6727 28.1826 34.3219Z" fill="#fd7ad8" fill-rule="nonzero" opacity="1" stroke="none" vectornator:layerName="path"/>
<path d="M28.1826 48.647C26.8962 48.2962 25.5514 48.4716 24.382 49.1733C23.2126 49.8164 22.394 50.9276 22.0432 52.2136C21.6924 53.4996 21.8678 54.8446 22.5694 56.0146C23.2126 57.1836 24.3235 58.0026 25.6099 58.3526C26.0192 58.4696 26.4869 58.5286 26.8962 58.5286C27.7733 58.5286 28.6503 58.2946 29.4104 57.8266C30.5798 57.1836 31.3984 56.0726 31.7492 54.7866C32.1 53.4996 31.9246 52.1556 31.223 50.9856C30.5798 49.8164 29.4689 48.9394 28.1826 48.647Z" fill="#fd7ad8" fill-rule="nonzero" opacity="1" stroke="none" vectornator:layerName="path"/>
<path d="M28.1826 62.9136C26.8962 62.5626 25.5514 62.7386 24.382 63.4396C23.2126 64.0836 22.394 65.1936 22.0432 66.4806C21.6924 67.7666 21.8678 69.1116 22.5694 70.2806C23.2126 71.4506 24.3235 72.2686 25.6099 72.6196C26.0192 72.7366 26.4869 72.7956 26.8962 72.7956C27.7733 72.7956 28.6503 72.5616 29.4104 72.0936C31.8077 70.6906 32.6263 67.6496 31.223 65.1936C30.5798 64.1416 29.4689 63.2646 28.1826 62.9136Z" fill="#fd7ad8" fill-rule="nonzero" opacity="1" stroke="none" vectornator:layerName="path"/>
<path d="M37.947 36.8361C38.3563 36.953 38.8241 37.0115 39.2334 37.0115C40.1104 37.0115 40.9875 36.7776 41.7476 36.3099C44.1449 34.9066 44.9634 31.8662 43.6186 29.4104C42.9755 28.241 41.8645 27.4224 40.5782 27.0716C39.2919 26.7208 37.947 26.8962 36.7776 27.5979C35.6082 28.241 34.7897 29.352 34.4388 30.6383C34.088 31.9246 34.2634 33.2694 34.9651 34.4388C35.6082 35.6667 36.6607 36.4853 37.947 36.8361Z" fill="#fd7ad8" fill-rule="nonzero" opacity="1" stroke="none" vectornator:layerName="path"/>
<path d="M36.7776 70.5736C35.6082 71.2166 34.7897 72.3276 34.4388 73.6136C34.088 74.8996 34.2634 76.2446 34.9651 77.4146C35.6082 78.5836 36.7192 79.4026 38.0055 79.7526C38.4148 79.8696 38.8826 79.9286 39.2919 79.9286C40.1689 79.9286 41.046 79.6946 41.8061 79.2266C42.9755 78.5836 43.794 77.4726 44.1449 76.1866C44.4957 74.8996 44.3203 73.5556 43.6186 72.3856C42.2153 70.0466 39.1749 69.2286 36.7776 70.5736Z" fill="#fd7ad8" fill-rule="nonzero" opacity="1" stroke="none" vectornator:layerName="path"/>
<path d="M40.2274 42.917C39.2919 42.6831 38.3563 42.8 37.5378 43.2678C36.7192 43.7356 36.1345 44.4957 35.9006 45.4312C35.6667 46.3667 35.7837 47.3022 36.2514 48.1208C36.8946 49.2902 38.1225 49.8749 39.3503 49.8749C39.935 49.8749 40.5782 49.6995 41.1044 49.4071C41.923 48.9394 42.5077 48.1793 42.7416 47.2438C42.9755 46.3082 42.8585 45.3727 42.3908 44.5541C41.923 43.7356 41.1629 43.1509 40.2274 42.917Z" fill="#ffadda" fill-rule="nonzero" opacity="1" stroke="none" vectornator:layerName="path"/>
<path d="M74.0819 43.5017C74.8419 43.9694 75.7189 44.2033 76.5959 44.2033C77.0639 44.2033 77.4729 44.1448 77.8819 44.0279C79.1679 43.6771 80.2789 42.8585 80.9229 41.6891C81.5659 40.5197 81.7999 39.1749 81.4489 37.8886C81.0979 36.6022 80.2789 35.4913 79.1099 34.8481C77.9409 34.205 76.5959 33.9711 75.3089 34.3219C74.0229 34.6727 72.9119 35.4913 72.2689 36.6607C71.6259 37.8301 71.3919 39.1749 71.7429 40.4612C72.0939 41.7476 72.9119 42.8585 74.0819 43.5017Z" fill="#fd7ad8" fill-rule="nonzero" opacity="1" stroke="none" vectornator:layerName="path"/>
<path d="M79.1099 49.1148C77.9409 48.4716 76.5959 48.2377 75.3089 48.5886C74.0229 48.9394 72.9119 49.758 72.2689 50.9276C71.6259 52.0966 71.3919 53.4416 71.7429 54.7276C72.0939 56.0146 72.9119 57.1256 74.0819 57.7686C74.8419 58.2366 75.7189 58.4696 76.5959 58.4696C77.0639 58.4696 77.4729 58.4116 77.8819 58.2946C79.1679 57.9436 80.2789 57.1256 80.9229 55.9556C81.5659 54.7866 81.7999 53.4416 81.4489 52.1556C81.0979 50.8686 80.2789 49.8164 79.1099 49.1148Z" fill="#fd7ad8" fill-rule="nonzero" opacity="1" stroke="none" vectornator:layerName="path"/>
<path d="M79.1099 63.4396C77.9409 62.7966 76.5959 62.5626 75.3089 62.9136C74.0229 63.2646 72.9119 64.0836 72.2689 65.2526C70.8659 67.6496 71.6839 70.7486 74.0819 72.1516C74.8419 72.6196 75.7189 72.8536 76.5959 72.8536C77.0049 72.8536 77.4729 72.7956 77.8819 72.6786C79.1679 72.3276 80.2789 71.5086 80.9229 70.3396C81.5659 69.1696 81.7999 67.8256 81.4489 66.5386C81.0979 65.1936 80.2789 64.0836 79.1099 63.4396Z" fill="#fd7ad8" fill-rule="nonzero" opacity="1" stroke="none" vectornator:layerName="path"/>
<path d="M49.2899 29.1765C50.0499 29.6443 50.9269 29.8782 51.8049 29.8782C52.2719 29.8782 52.6819 29.8197 53.0909 29.7028C54.3769 29.352 55.4879 28.5334 56.1309 27.364C56.7739 26.1946 57.0079 24.8498 56.6579 23.5634C56.3069 22.2771 55.4879 21.1662 54.3189 20.523C53.1489 19.8798 51.8049 19.6459 50.5179 19.9968C49.2319 20.3476 48.1208 21.1662 47.4776 22.3356C46.0744 24.7328 46.8929 27.8317 49.2899 29.1765Z" fill="#fd7ad8" fill-rule="nonzero" opacity="1" stroke="none" vectornator:layerName="path"/>
<path d="M61.6859 36.3683C62.4459 36.8361 63.3229 37.07 64.1999 37.07C64.6089 37.07 65.0769 37.0115 65.4859 36.8946C66.7729 36.5438 67.8839 35.7252 68.5269 34.5558C69.1699 33.3864 69.4039 32.0416 69.0529 30.7552C68.7019 29.4689 67.8839 28.358 66.7139 27.7148C65.5449 27.0716 64.1999 26.8377 62.9139 27.1886C61.6269 27.5394 60.5169 28.358 59.8729 29.5274C58.4699 31.8662 59.2889 34.9651 61.6859 36.3683Z" fill="#fd7ad8" fill-rule="nonzero" opacity="1" stroke="none" vectornator:layerName="path"/>
<path d="M66.7139 70.5736C64.3169 69.1696 61.2179 69.9886 59.8149 72.3856C59.1719 73.5556 58.9379 74.8996 59.2889 76.1866C59.6399 77.4726 60.4579 78.5836 61.6269 79.2266C62.3879 79.6946 63.2649 79.9286 64.1419 79.9286C64.6089 79.9286 65.0189 79.8696 65.4279 79.7526C66.7139 79.4026 67.8249 78.5836 68.4679 77.4146C69.1119 76.2446 69.3459 74.8996 68.9949 73.6136C68.7019 72.3276 67.8839 71.2746 66.7139 70.5736Z" fill="#fd7ad8" fill-rule="nonzero" opacity="1" stroke="none" vectornator:layerName="path"/>
<path d="M65.9539 43.2678C65.1359 42.8 64.1999 42.6831 63.2649 42.917C62.3289 43.1509 61.5689 43.7356 61.1009 44.5541C60.6329 45.3727 60.5169 46.3082 60.7499 47.2438C60.9839 48.1793 61.5689 48.9394 62.3879 49.4071C62.9719 49.758 63.5569 49.8749 64.1419 49.8749C65.3699 49.8749 66.5969 49.2317 67.2409 48.1208C67.7079 47.3022 67.8249 46.3667 67.5909 45.4312C67.3579 44.4957 66.7729 43.7356 65.9539 43.2678Z" fill="#ffadda" fill-rule="nonzero" opacity="1" stroke="none" vectornator:layerName="path"/>
<path d="M60.3999 62.7966C61.1599 64.1416 62.5629 64.9606 64.1419 64.9606C64.9019 64.9606 65.6029 64.7846 66.3049 64.3756C68.3519 63.2056 69.0529 60.5746 67.8839 58.5286C67.2989 57.5346 66.3639 56.8326 65.2529 56.5406C64.1419 56.2486 62.9719 56.4236 61.9779 56.9496C61.8609 57.0086 61.7439 57.0666 61.6269 57.1836L59.2299 55.7806L59.2299 55.7806L59.1719 55.7216C55.6639 53.7336 53.4999 49.9918 53.4419 45.9574L53.4419 45.782L53.4419 45.782L53.4419 43.0924C53.5589 43.0339 53.6759 42.9755 53.7929 42.917C55.8389 41.7476 56.5409 39.1164 55.3709 37.07C54.7859 36.076 53.8509 35.3744 52.7399 35.082C51.6289 34.7897 50.4599 34.9651 49.4659 35.4913C47.4192 36.6607 46.7175 39.2918 47.8869 41.3383C48.3547 42.1569 49.0563 42.7416 49.8749 43.0924L49.8749 45.782C49.9329 49.8749 47.7115 53.7336 44.1449 55.7806L41.7476 57.1836C41.3383 56.8326 40.8121 56.5986 40.2858 56.4816C39.1749 56.1896 38.0055 56.3646 37.0115 56.8916C34.9651 58.0606 34.2634 60.6916 35.4328 62.7386C36.1929 64.0836 37.5962 64.9016 39.1749 64.9016C39.935 64.9016 40.6367 64.7266 41.3383 64.3166C42.8 63.4396 43.6186 61.8616 43.4432 60.2236L46.0159 58.7626C49.5239 56.7156 53.9089 56.7156 57.4179 58.7626L59.8149 60.1076C59.7559 61.0426 59.9319 61.9786 60.3999 62.7966Z" fill="#ffadda" fill-rule="nonzero" opacity="1" stroke="none" vectornator:layerName="path"/>
<path d="M37.1285 21.4585C37.7716 21.8093 38.5317 22.0432 39.2919 22.0432C40.8121 22.0432 42.2738 21.2246 43.0339 19.8798C43.6186 18.8858 43.7356 17.7164 43.4432 16.6055C43.1509 15.4946 42.4492 14.5591 41.4552 13.9744C40.4613 13.3897 39.2919 13.2727 38.1809 13.5651C37.07 13.8574 36.1345 14.5591 35.5498 15.553C34.9651 16.547 34.8481 17.7164 35.1405 18.8274C35.4328 19.9968 36.1345 20.8738 37.1285 21.4585Z" fill="#9cabff" fill-rule="nonzero" opacity="1" stroke="none" vectornator:layerName="path"/>
<path d="M24.7913 28.5918C25.4345 28.9427 26.1946 29.1765 26.9547 29.1765C28.4749 29.1765 29.9367 28.358 30.6968 27.0132C31.8662 24.9667 31.1645 22.3356 29.1181 21.1662C28.1241 20.5815 26.9547 20.4645 25.8438 20.7569C24.7328 21.0492 23.7973 21.7509 23.2126 22.7448C22.0432 24.7913 22.7448 27.4224 24.7913 28.5918Z" fill="#9cabff" fill-rule="nonzero" opacity="1" stroke="none" vectornator:layerName="path"/>
<path d="M17.4241 28.241C16.3132 27.5979 15.0853 27.4224 13.8574 27.7733C12.6295 28.1241 11.6356 28.8842 10.9924 29.9951C10.3492 31.1061 10.1738 32.3339 10.5246 33.5618C10.8754 34.7897 11.6356 35.7836 12.688 36.4268C13.3897 36.8361 14.2082 37.07 15.0268 37.07C16.7224 37.07 18.3011 36.1929 19.1197 34.7312C19.7629 33.6203 19.9383 32.3924 19.5875 31.1645C19.2951 29.8782 18.535 28.8842 17.4241 28.241Z" fill="#9cabff" fill-rule="nonzero" opacity="1" stroke="none" vectornator:layerName="path"/>
<path d="M40.4028 85.0156C39.2919 84.7226 38.1225 84.8986 37.1285 85.4246C36.1345 86.0096 35.4328 86.9446 35.1405 88.0556C34.8481 89.1666 35.0235 90.3366 35.5498 91.3296C36.1345 92.3236 37.07 93.0256 38.1809 93.3176C38.5317 93.4346 38.941 93.4936 39.2919 93.4936C40.052 93.4936 40.7536 93.3176 41.4552 92.9086C42.4492 92.3236 43.1509 91.3886 43.4432 90.2776C43.7356 89.1666 43.5602 87.9976 43.0339 87.0036C42.4492 86.0096 41.5137 85.3076 40.4028 85.0156Z" fill="#9cabff" fill-rule="nonzero" opacity="1" stroke="none" vectornator:layerName="path"/>
<path d="M24.7913 78.2916C23.7973 78.8756 23.0957 79.8116 22.8033 80.9226C22.511 82.0336 22.6864 83.2026 23.2126 84.1966C23.7973 85.1906 24.7328 85.8926 25.8438 86.1846C26.1946 86.3016 26.6039 86.3606 26.9547 86.3606C27.7148 86.3606 28.4164 86.1846 29.1181 85.7756C31.1645 84.6056 31.8662 81.9746 30.6968 79.9286C29.5274 77.8816 26.8377 77.1216 24.7913 78.2916Z" fill="#9cabff" fill-rule="nonzero" opacity="1" stroke="none" vectornator:layerName="path"/>
<path d="M15.7869 70.3396C14.5591 69.9886 13.2727 70.1636 12.2203 70.8076C11.1093 71.4506 10.3492 72.4446 9.9984 73.6726C9.6476 74.8996 9.823 76.1866 10.4662 77.2386C11.1093 78.3496 12.1033 79.1096 13.3312 79.4606C13.7405 79.5776 14.1498 79.6366 14.5591 79.6366C15.3776 79.6366 16.1962 79.4026 16.8979 78.9926C18.0088 78.3496 18.7689 77.3556 19.1197 76.1276C19.4705 74.8996 19.2951 73.6136 18.652 72.5616C18.0088 71.4506 17.0148 70.6316 15.7869 70.3396Z" fill="#9cabff" fill-rule="nonzero" opacity="1" stroke="none" vectornator:layerName="path"/>
<path d="M12.3957 56.8916C10.3492 58.0606 9.6476 60.6916 10.817 62.7386C11.4017 63.7326 12.3372 64.4336 13.4481 64.7266C13.7989 64.8436 14.2082 64.9016 14.5591 64.9016C15.3192 64.9016 16.0208 64.7266 16.7224 64.3166C17.7164 63.7326 18.4181 62.7966 18.7104 61.6856C19.0028 60.5746 18.8274 59.4056 18.3011 58.4116C17.0733 56.4236 14.4421 55.7216 12.3957 56.8916Z" fill="#9cabff" fill-rule="nonzero" opacity="1" stroke="none" vectornator:layerName="path"/>
<path d="M15.67 42.1569C14.5591 41.8645 13.3897 42.0399 12.3957 42.5662C11.4017 43.1509 10.7 44.0864 10.4077 45.1973C10.1153 46.3082 10.2907 47.4776 10.817 48.4716C11.4017 49.4656 12.3372 50.1673 13.4481 50.4596C13.7989 50.5765 14.2082 50.635 14.5591 50.635C15.3192 50.635 16.0208 50.4596 16.7224 50.0503C17.7164 49.4656 18.4181 48.5301 18.7104 47.4192C19.0028 46.3082 18.8274 45.1388 18.3011 44.1448C17.7164 43.2093 16.7809 42.5077 15.67 42.1569Z" fill="#9cabff" fill-rule="nonzero" opacity="1" stroke="none" vectornator:layerName="path"/>
<path d="M52.9149 14.7345C52.5649 14.8514 52.1549 14.9099 51.8049 14.9099C51.0439 14.9099 50.3429 14.7345 49.6409 14.3252C47.5946 13.1558 46.8929 10.5246 48.0623 8.4782C48.647 7.4842 49.5829 6.7826 50.6939 6.4902C51.8049 6.1979 52.9739 6.3733 53.9679 6.8995C54.9619 7.4257 55.6639 8.4197 55.9559 9.5306C56.2479 10.6416 56.0729 11.811 55.5469 12.805C54.9619 13.7405 54.0259 14.4421 52.9149 14.7345Z" fill="#9cabff" fill-rule="nonzero" opacity="1" stroke="none" vectornator:layerName="path"/>
<path d="M66.3049 21.4585C65.6619 21.8093 64.9019 22.0432 64.1419 22.0432C62.6209 22.0432 61.1599 21.2246 60.3999 19.8798C59.8149 18.8858 59.6979 17.7164 59.9899 16.6055C60.2829 15.4946 60.9839 14.5591 61.9779 13.9744C62.9719 13.3897 64.1419 13.2727 65.2529 13.5651C66.3639 13.8574 67.2989 14.5591 67.8839 15.553C68.4679 16.547 68.5849 17.7164 68.2929 18.8274C68.0589 19.9968 67.2989 20.8738 66.3049 21.4585Z" fill="#9cabff" fill-rule="nonzero" opacity="1" stroke="none" vectornator:layerName="path"/>
<path d="M78.7009 28.5918C78.0579 28.9427 77.2969 29.1765 76.5369 29.1765C75.0169 29.1765 73.5549 28.358 72.7949 27.0132C71.6259 24.9667 72.3269 22.3356 74.3739 21.1662C75.3679 20.5815 76.5369 20.4645 77.6479 20.7569C78.7589 21.0492 79.6949 21.7509 80.2789 22.7448C81.4489 24.7913 80.7469 27.4224 78.7009 28.5918Z" fill="#9cabff" fill-rule="nonzero" opacity="1" stroke="none" vectornator:layerName="path"/>
<path d="M86.0679 28.241C87.1789 27.5979 88.4069 27.4224 89.6349 27.7733C90.8619 28.1241 91.8559 28.8842 92.4999 29.9951C93.1429 31.1061 93.3179 32.3339 92.9669 33.5618C92.6169 34.7897 91.8559 35.7836 90.8039 36.4268C90.1019 36.8361 89.2839 37.07 88.4649 37.07C86.7699 37.07 85.1909 36.1929 84.3719 34.7312C83.7289 33.6203 83.5539 32.3924 83.9049 31.1645C84.1969 29.8782 84.9569 28.8842 86.0679 28.241Z" fill="#9cabff" fill-rule="nonzero" opacity="1" stroke="none" vectornator:layerName="path"/>
<path d="M49.6409 92.6166C50.6349 92.0316 51.8049 91.9146 52.9149 92.2076C54.0259 92.4996 54.9619 93.2016 55.5469 94.1956C56.7159 96.2416 56.0139 98.8726 53.9679 100.043C53.3249 100.393 52.5649 100.627 51.8049 100.627C50.2839 100.627 48.8225 99.8086 48.0623 98.4636C46.8929 96.4166 47.5946 93.7856 49.6409 92.6166Z" fill="#9cabff" fill-rule="nonzero" opacity="1" stroke="none" vectornator:layerName="path"/>
<path d="M63.0889 85.0156C64.1999 84.7226 65.3699 84.8986 66.3639 85.4246C67.3579 86.0096 68.0589 86.9446 68.3519 88.0556C68.6439 89.1666 68.4679 90.3366 67.9419 91.3296C67.3579 92.3236 66.4219 93.0256 65.3109 93.3176C64.9599 93.4346 64.5509 93.4936 64.1999 93.4936C63.4399 93.4936 62.7379 93.3176 62.0369 92.9086C61.0429 92.3236 60.3409 91.3886 60.0489 90.2776C59.7559 89.1666 59.9319 87.9976 60.4579 87.0036C61.0429 86.0096 61.9779 85.3076 63.0889 85.0156Z" fill="#9cabff" fill-rule="nonzero" opacity="1" stroke="none" vectornator:layerName="path"/>
<path d="M78.7009 78.2916C79.6949 78.8756 80.3959 79.8116 80.6889 80.9226C80.9809 82.0336 80.8059 83.2026 80.2789 84.1966C79.6949 85.1906 78.7589 85.8926 77.6479 86.1846C77.2969 86.3016 76.8879 86.3606 76.5369 86.3606C75.7769 86.3606 75.0759 86.1846 74.3739 85.7756C72.3269 84.6056 71.6259 81.9746 72.7949 79.9286C73.9649 77.8816 76.6539 77.1216 78.7009 78.2916Z" fill="#9cabff" fill-rule="nonzero" opacity="1" stroke="none" vectornator:layerName="path"/>
<path d="M87.7049 70.3396C88.9329 69.9886 90.2189 70.1636 91.2719 70.8076C92.3829 71.4506 93.1429 72.4446 93.4939 73.6726C93.8439 74.8996 93.6689 76.1866 93.0259 77.2386C92.3829 78.3496 91.3889 79.1096 90.1609 79.4606C89.7519 79.5776 89.3419 79.6366 88.9329 79.6366C88.1139 79.6366 87.2959 79.4026 86.5939 78.9926C85.4829 78.3496 84.7229 77.3556 84.3719 76.1276C84.0209 74.8996 84.1969 73.6136 84.8399 72.5616C85.4829 71.4506 86.4769 70.6316 87.7049 70.3396Z" fill="#9cabff" fill-rule="nonzero" opacity="1" stroke="none" vectornator:layerName="path"/>
<path d="M91.0959 56.8916C93.1429 58.0606 93.8439 60.6916 92.6749 62.7386C92.0899 63.7326 91.1549 64.4336 90.0439 64.7266C89.6929 64.8436 89.2839 64.9016 88.9329 64.9016C88.1729 64.9016 87.4709 64.7266 86.7699 64.3166C85.7759 63.7326 85.0739 62.7966 84.7819 61.6856C84.4889 60.5746 84.6649 59.4056 85.1909 58.4116C86.4189 56.4236 89.0499 55.7216 91.0959 56.8916Z" fill="#9cabff" fill-rule="nonzero" opacity="1" stroke="none" vectornator:layerName="path"/>
<path d="M87.8219 42.1569C88.9329 41.8645 90.1019 42.0399 91.0959 42.5662C92.0899 43.1509 92.7919 44.0864 93.0839 45.1973C93.3769 46.3082 93.2009 47.4776 92.6749 48.4716C92.0899 49.4656 91.1549 50.1673 90.0439 50.4596C89.6929 50.5765 89.2839 50.635 88.9329 50.635C88.1729 50.635 87.4709 50.4596 86.7699 50.0503C85.7759 49.4656 85.0739 48.5301 84.7819 47.4192C84.4889 46.3082 84.6649 45.1388 85.1909 44.1448C85.7759 43.2093 86.7109 42.5077 87.8219 42.1569Z" fill="#9cabff" fill-rule="nonzero" opacity="1" stroke="none" vectornator:layerName="path"/>
<path d="M89.0499 21.5755C88.5239 21.8678 87.8799 22.0432 87.2959 22.0432C87.0029 22.0432 86.6529 21.9847 86.3599 21.9263C85.4249 21.6924 84.6649 21.1077 84.1969 20.2891C83.7289 19.4705 83.6119 18.535 83.8459 17.5995C84.0799 16.664 84.6649 15.9039 85.4829 15.4361C86.3019 14.9683 87.2369 14.8514 88.1729 15.0853C89.1079 15.3192 89.8679 15.9039 90.3359 16.7224C91.3299 18.4181 90.7459 20.5815 89.0499 21.5755Z" fill="#bec9ff" fill-rule="nonzero" opacity="1" stroke="none" vectornator:layerName="path"/>
<path d="M78.7009 15.6115C78.1159 15.9623 77.5309 16.0793 76.9469 16.0793C75.7189 16.0793 74.4909 15.4361 73.8479 14.3252C73.3799 13.5066 73.2629 12.5711 73.4969 11.6356C73.7309 10.7 74.3149 9.9399 75.1339 9.4722C75.9529 9.0044 76.8879 8.8875 77.8239 9.1214C78.7589 9.3552 79.5189 9.9399 79.9869 10.7585C80.9809 12.4541 80.3959 14.6175 78.7009 15.6115Z" fill="#bec9ff" fill-rule="nonzero" opacity="1" stroke="none" vectornator:layerName="path"/>
<path d="M65.9539 6.6071C65.4279 6.8995 64.7849 7.0749 64.1999 7.0749C63.9079 7.0749 63.5569 7.0164 63.2649 6.958C62.3289 6.7241 61.5689 6.1394 61.1009 5.3208C60.6329 4.5022 60.5169 3.5667 60.7499 2.6312C60.9839 1.6957 61.5689 0.9356 62.3879 0.4678C63.2059 0 64.1419-0.1169 65.0769 0.117C66.0129 0.3509 66.7729 0.9356 67.2409 1.7541C68.2349 3.3913 67.6499 5.6132 65.9539 6.6071Z" fill="#bec9ff" fill-rule="nonzero" opacity="1" stroke="none" vectornator:layerName="path"/>
<path d="M98.5809 34.6142C99.5159 34.3804 100.452 34.4973 101.27 34.9651C102.089 35.4328 102.673 36.1929 102.907 37.1285C103.141 38.064 103.024 38.9995 102.556 39.8181C101.913 40.9875 100.685 41.5722 99.4579 41.5722C98.8729 41.5722 98.2299 41.3968 97.7029 41.1044C96.8849 40.6367 96.2999 39.8765 96.0659 38.941C95.8319 38.0055 95.9489 37.07 96.4169 36.2514C96.8849 35.4328 97.7029 34.8481 98.5809 34.6142Z" fill="#bec9ff" fill-rule="nonzero" opacity="1" stroke="none" vectornator:layerName="path"/>
<path d="M99.0479 50.752C99.9839 50.5181 100.919 50.635 101.738 51.1026C102.556 51.5706 103.141 52.3306 103.375 53.2666C103.609 54.2016 103.492 55.1376 103.024 55.9556C102.556 56.7746 101.796 57.3586 100.861 57.5926C100.568 57.6516 100.218 57.7096 99.9249 57.7096C99.2819 57.7096 98.6969 57.5346 98.1709 57.2426C97.3529 56.7746 96.7679 56.0146 96.5339 55.0786C96.2999 54.1436 96.4169 53.2076 96.8849 52.3896C97.3529 51.5706 98.1129 50.9856 99.0479 50.752Z" fill="#bec9ff" fill-rule="nonzero" opacity="1" stroke="none" vectornator:layerName="path"/>
<path d="M98.5809 63.6156C99.5159 63.3816 100.452 63.4986 101.27 63.9666C102.089 64.4336 102.673 65.1936 102.907 66.1296C103.141 67.0646 103.024 68.0006 102.556 68.8196C102.089 69.6376 101.329 70.2226 100.393 70.4566C100.101 70.5146 99.7499 70.5736 99.4579 70.5736C98.8139 70.5736 98.2299 70.3976 97.7029 70.1056C96.8849 69.6376 96.2999 68.8776 96.0659 67.9426C95.8319 67.0066 95.9489 66.0706 96.4169 65.2526C96.8849 64.4336 97.6449 63.8496 98.5809 63.6156Z" fill="#bec9ff" fill-rule="nonzero" opacity="1" stroke="none" vectornator:layerName="path"/>
<path d="M14.4421 21.5755C14.9683 21.8678 15.6115 22.0432 16.1962 22.0432C16.4886 22.0432 16.8394 21.9847 17.1317 21.9263C18.0673 21.6924 18.8274 21.1077 19.2951 20.2891C19.7629 19.4705 19.8798 18.535 19.6459 17.5995C19.4121 16.664 18.8274 15.9039 18.0088 15.4361C17.1902 14.9683 16.2547 14.8514 15.3192 15.0853C14.3836 15.3192 13.6235 15.9039 13.1558 16.7224C12.1618 18.4181 12.7465 20.5815 14.4421 21.5755Z" fill="#bec9ff" fill-rule="nonzero" opacity="1" stroke="none" vectornator:layerName="path"/>
<path d="M24.7913 15.6115C25.376 15.9623 25.9607 16.0793 26.5454 16.0793C27.7733 16.0793 29.0011 15.4361 29.6443 14.3252C30.1121 13.5066 30.229 12.5711 29.9951 11.6356C29.7612 10.7 29.1765 9.9399 28.358 9.4722C27.5394 9.0044 26.6039 8.8875 25.6683 9.1214C24.7328 9.3552 23.9727 9.9399 23.505 10.7585C22.511 12.4541 23.0957 14.6175 24.7913 15.6115Z" fill="#bec9ff" fill-rule="nonzero" opacity="1" stroke="none" vectornator:layerName="path"/>
<path d="M37.5378 6.6071C38.064 6.8995 38.7072 7.0749 39.2919 7.0749C39.5842 7.0749 39.935 7.0164 40.2274 6.958C41.1629 6.7241 41.923 6.1394 42.3908 5.3208C42.8585 4.5022 42.9755 3.5667 42.7416 2.6312C42.5077 1.6957 41.923 0.9356 41.1044 0.4678C40.2858 0 39.3503-0.1169 38.4148 0.117C37.4793 0.3509 36.7192 0.9356 36.2514 1.7541C35.2574 3.3913 35.8421 5.6132 37.5378 6.6071Z" fill="#bec9ff" fill-rule="nonzero" opacity="1" stroke="none" vectornator:layerName="path"/>
<path d="M40.2274 100.043C39.2919 99.8086 38.3563 99.9256 37.5378 100.393L37.5378 100.393C35.8421 101.387 35.2574 103.551 36.2514 105.246C36.7192 106.065 37.4793 106.65 38.4148 106.884C38.7072 106.942 39.058 107 39.3503 107C39.9935 107 40.5782 106.825 41.1044 106.533C41.923 106.065 42.5077 105.305 42.7416 104.369C42.9755 103.434 42.8585 102.498 42.3908 101.68C41.923 100.861 41.1629 100.276 40.2274 100.043Z" fill="#bec9ff" fill-rule="nonzero" opacity="1" stroke="none" vectornator:layerName="path"/>
<path d="M25.0836 91.6806L25.0836 91.6806C23.388 92.6746 22.8033 94.8386 23.7973 96.5336C24.2651 97.3526 25.0252 97.9376 25.9607 98.1706C26.253 98.2296 26.6039 98.2876 26.8962 98.2876C27.5394 98.2876 28.1241 98.1126 28.6503 97.8206C29.4689 97.3526 30.0536 96.5926 30.2875 95.6566C30.5214 94.7216 30.4044 93.7856 29.9367 92.9676C29.0011 91.3296 26.7793 90.7456 25.0836 91.6806Z" fill="#bec9ff" fill-rule="nonzero" opacity="1" stroke="none" vectornator:layerName="path"/>
<path d="M17.541 85.3666C16.6055 85.1326 15.67 85.2496 14.8514 85.7166C13.1558 86.7106 12.5711 88.8746 13.5651 90.5696C14.0328 91.3886 14.7929 91.9736 15.7285 92.2076C16.0208 92.2656 16.3716 92.3236 16.664 92.3236C17.3071 92.3236 17.8918 92.1486 18.4181 91.8566C19.2367 91.3886 19.8214 90.6286 20.0552 89.6926C20.2891 88.7576 20.1722 87.8216 19.7044 87.0036C19.2367 86.1846 18.4765 85.5996 17.541 85.3666Z" fill="#bec9ff" fill-rule="nonzero" opacity="1" stroke="none" vectornator:layerName="path"/>
<path d="M4.853 34.6142C3.9175 34.3804 2.982 34.4973 2.1634 34.9651C1.3448 35.4328 0.7601 36.1929 0.5263 37.1285C0.2924 38.064 0.4093 38.9995 0.8771 39.8181C1.5202 40.9875 2.7481 41.5722 3.976 41.5722C4.5607 41.5722 5.2039 41.3968 5.7301 41.1044C6.5487 40.6367 7.1334 39.8765 7.3672 38.941C7.6011 38.0055 7.4842 37.07 7.0164 36.2514C6.5487 35.4328 5.7886 34.8481 4.853 34.6142Z" fill="#bec9ff" fill-rule="nonzero" opacity="1" stroke="none" vectornator:layerName="path"/>
<path d="M4.4437 50.752C3.5082 50.5181 2.5727 50.635 1.7541 51.1026C0.9355 51.5706 0.3508 52.3306 0.117 53.2666C-0.1169 54.2016 0 55.1376 0.4678 55.9556C0.9355 56.7746 1.6957 57.3586 2.6312 57.5926C2.9235 57.6516 3.2743 57.7096 3.5667 57.7096C4.2099 57.7096 4.7946 57.5346 5.3208 57.2426C6.1394 56.7746 6.7241 56.0146 6.958 55.0786C7.1918 54.1436 7.0749 53.2076 6.6071 52.3896C6.1394 51.5706 5.3793 50.9856 4.4437 50.752Z" fill="#bec9ff" fill-rule="nonzero" opacity="1" stroke="none" vectornator:layerName="path"/>
<path d="M4.9115 63.6156C3.976 63.3816 3.0405 63.4986 2.2219 63.9666C1.4033 64.4336 0.8186 65.1936 0.5847 66.1296C0.3508 67.0646 0.4678 68.0006 0.9355 68.8196C1.4033 69.6376 2.1634 70.2226 3.0989 70.4566C3.3913 70.5146 3.7421 70.5736 4.0345 70.5736C4.6776 70.5736 5.2623 70.3976 5.7886 70.1056C6.6071 69.6376 7.1918 68.8776 7.4257 67.9426C7.6596 67.0066 7.5427 66.0706 7.0749 65.2526C6.6071 64.4336 5.847 63.8496 4.9115 63.6156Z" fill="#bec9ff" fill-rule="nonzero" opacity="1" stroke="none" vectornator:layerName="path"/>
<path d="M63.2649 100.043C64.1999 99.8086 65.1359 99.9256 65.9539 100.393L65.9539 100.393C67.6499 101.387 68.2349 103.551 67.2409 105.246C66.7729 106.065 66.0129 106.65 65.0769 106.884C64.7849 106.942 64.4339 107 64.1419 107C63.4989 107 62.9139 106.825 62.3879 106.533C61.5689 106.065 60.9839 105.305 60.7499 104.369C60.5169 103.434 60.6329 102.498 61.1009 101.68C61.5689 100.861 62.3289 100.276 63.2649 100.043Z" fill="#bec9ff" fill-rule="nonzero" opacity="1" stroke="none" vectornator:layerName="path"/>
<path d="M78.4079 91.6806L78.4079 91.6806C80.1039 92.6746 80.6889 94.8386 79.6949 96.5336C79.2269 97.3526 78.4669 97.9376 77.5309 98.1706C77.2389 98.2296 76.8879 98.2876 76.5959 98.2876C75.9529 98.2876 75.3679 98.1126 74.8419 97.8206C74.0229 97.3526 73.4379 96.5926 73.2049 95.6566C72.9709 94.7216 73.0879 93.7856 73.5549 92.9676C74.4909 91.3296 76.7129 90.7456 78.4079 91.6806Z" fill="#bec9ff" fill-rule="nonzero" opacity="1" stroke="none" vectornator:layerName="path"/>
<path d="M85.9509 85.3666C86.8869 85.1326 87.8219 85.2496 88.6409 85.7166C90.3359 86.7106 90.9209 88.8746 89.9269 90.5696C89.4589 91.3886 88.6989 91.9736 87.7639 92.2076C87.4709 92.2656 87.1199 92.3236 86.8279 92.3236C86.1849 92.3236 85.5999 92.1486 85.0739 91.8566C84.2549 91.3886 83.6709 90.6286 83.4369 89.6926C83.2029 88.7576 83.3199 87.8216 83.7879 87.0036C84.2549 86.1846 85.0149 85.5996 85.9509 85.3666Z" fill="#bec9ff" fill-rule="nonzero" opacity="1" stroke="none" vectornator:layerName="path"/>
<path d="M49.8749 70.8076C50.4599 71.1576 51.0439 71.2746 51.6289 71.2746C52.8569 71.2746 54.0849 70.6316 54.7279 69.5206C55.1959 68.7026 55.3129 67.7666 55.0789 66.8316C54.8449 65.8956 54.2599 65.1356 53.4419 64.6676C52.6229 64.1996 51.6879 64.0836 50.7519 64.3166C49.8169 64.5506 49.0563 65.1356 48.5886 65.9546C48.1208 66.7726 48.0039 67.7086 48.2378 68.6436C48.4716 69.5796 49.0563 70.3396 49.8749 70.8076Z" fill="#ffadda" fill-rule="nonzero" opacity="1" stroke="none" vectornator:layerName="path"/>
<path d="M54.3189 77.7646C51.9209 76.3616 48.8225 77.1806 47.4192 79.6366C46.0159 82.0336 46.8345 85.1326 49.2319 86.5356C49.9919 87.0036 50.8689 87.2376 51.7459 87.2376C52.2139 87.2376 52.6229 87.1786 53.0319 87.0616C54.3189 86.7106 55.4299 85.8926 56.0729 84.7226C57.5349 82.2086 56.7159 79.1096 54.3189 77.7646Z" fill="#fd7ad8" fill-rule="nonzero" opacity="1" stroke="none" vectornator:layerName="path"/>
</g>
</g>
</svg>
